<svg viewBox="0 0 792.3 165.6" xmlns="http://www.w3.org/2000/svg">
<desc>Created with http://www.regexplained.co.uk and RaphaelJS 2.1.0</desc>
<path fill="none" stroke="#000" d="M772.3,82.8Q762.3,82.8,762.3,92.8V89.6Q762.3,99.6,752.3,99.6H752.3" stroke-width="2"></path>
<path fill="none" stroke="#000" d="M20,82.8Q30,82.8,30,92.8V89.6Q30,99.6,40,99.6H40" stroke-width="2"></path>
<path fill="none" stroke="#000" d="M480.3,99.6H490.3" stroke-width="2"></path>
<path fill="none" stroke="#000" d="M445.1,99.6H455.1" stroke-width="2"></path>
<path fill="none" stroke="#000" d="M186.9,99.6H196.9" stroke-width="2"></path>
<path fill="none" stroke="#000" d="M102.5,99.6H112.5" stroke-width="2"></path>
<path fill="none" stroke="#000" d="M752.3,99.6Q742.3,99.6,742.3,109.6V112.0Q742.3,122.0,732.3,122.0H732.3" stroke-width="2"></path>
<path fill="none" stroke="#000" d="M490.3,99.6Q500.3,99.6,500.3,109.6V112.0Q500.3,122.0,510.3,122.0H510.3" stroke-width="2"></path>
<path fill="none" stroke="#000" d="M630.3,122.0H640.3" stroke-width="2"></path>
<path fill="none" stroke="#000" d="M545.9,122.0H555.9" stroke-width="2"></path>
<path fill="none" stroke="#000" d="M702.3,122.0Q712.3,122.0,712.3,132.0V133.8Q712.3,143.8,702.3,143.8H670.3Q660.3,143.8,660.3,133.8V132.0Q660.3,122.0,670.3,122.0" stroke-width="2"></path>
<path fill="none" stroke="#000" d="M640.3,122.0Q650.3,122.0,650.3,112.0V110.1Q650.3,100.1,660.3,100.1H712.3Q722.3,100.1,722.3,110.1V112.0Q722.3,122.0,732.3,122.0" stroke-width="2"></path>
<path fill="none" stroke="#000" d="M732.3,122.0H702.3" stroke-width="2"></path>
<path fill="none" stroke="#000" d="M640.3,122.0H670.3" stroke-width="2"></path>
<path fill="none" stroke="#000" d="M752.3,99.6Q742.3,99.6,742.3,89.6V65.5Q742.3,55.5,732.3,55.5H637.4" stroke-width="2"></path>
<path fill="none" stroke="#000" d="M490.3,99.6Q500.3,99.6,500.3,89.6V65.5Q500.3,55.5,510.3,55.5H605.2" stroke-width="2"></path>
<path fill="none" stroke="#000" d="M196.9,99.6Q206.9,99.6,206.9,89.6V71.8Q206.9,61.8,216.9,61.8H425.1Q435.1,61.8,435.1,71.8V89.6Q435.1,99.6,445.1,99.6" stroke-width="2"></path>
<path fill="none" stroke="#000" d="M445.1,99.6H425.1" stroke-width="2"></path>
<path fill="none" stroke="#000" d="M196.9,99.6H216.9" stroke-width="2"></path>
<path fill="none" stroke="#000" d="M340.8,99.6H350.8" stroke-width="2"></path>
<path fill="none" stroke="#000" d="M238.8,99.6H248.8" stroke-width="2"></path>
<path fill="none" stroke="#000" d="M310.8,99.6Q320.8,99.6,320.8,109.6V111.5Q320.8,121.5,310.8,121.5H278.8Q268.8,121.5,268.8,111.5V109.6Q268.8,99.6,278.8,99.6" stroke-width="2"></path>
<path fill="none" stroke="#000" d="M248.8,99.6Q258.8,99.6,258.8,89.6V87.8Q258.8,77.8,268.8,77.8H320.8Q330.8,77.8,330.8,87.8V89.6Q330.8,99.6,340.8,99.6" stroke-width="2"></path>
<path fill="none" stroke="#000" d="M340.8,99.6H310.8" stroke-width="2"></path>
<path fill="none" stroke="#000" d="M248.8,99.6H278.8" stroke-width="2"></path>
<path fill="none" stroke="#000" d="M40,99.6Q50,99.6,50,89.6V87.8Q50,77.8,60,77.8H82.5Q92.5,77.8,92.5,87.8V89.6Q92.5,99.6,102.5,99.6" stroke-width="2"></path>
<path fill="none" stroke="#000" d="M102.5,99.6H82.5" stroke-width="2"></path>
<path fill="none" stroke="#000" d="M40,99.6H60" stroke-width="2"></path>
<path fill="none" stroke="#000" d="M772.3,82.8Q762.3,82.8,762.3,72.8V31.8Q762.3,21.8,752.3,21.8H418.9" stroke-width="2"></path>
<path fill="none" stroke="#000" d="M20,82.8Q30,82.8,30,72.8V31.8Q30,21.8,40,21.8H373.4" stroke-width="2"></path>
<rect x="373.4" y="10" width="45.5" height="23.6" r="0" rx="3" ry="3" fill="#dae9e5" stroke="#dae9e5"></rect><text style="text-anchor: middle; font: 12px Arial;" x="396.1" y="21.8" stroke="none" fill="#000"><tspan dy="4.1">0e+0</tspan></text>
<rect x="60" y="87.8" width="22.5" height="23.6" r="0" rx="3" ry="3" fill="#dae9e5" stroke="#dae9e5"></rect><text style="text-anchor: middle; font: 12px Arial;" x="71.2" y="99.6" stroke="none" fill="#000"><tspan dy="4.1">-</tspan></text>
<rect x="112.5" y="82.8" width="74.3" height="33.6" r="0" rx="3" ry="3" fill="#cbcbba" stroke="#cbcbba"></rect><text style="text-anchor: middle; font: 10px Arial;" x="128.9" y="77.3" stroke="none" fill="#000"><tspan dy="3.4">One of:</tspan></text><text style="text-anchor: middle; font: bold 12px Arial;" x="149.7" y="99.6" stroke="none" fill="#000"><tspan dy="4.1">-</tspan></text>
<rect x="156.7" y="87.8" width="25.1" height="23.6" r="0" rx="3" ry="3" fill="#dae9e5" stroke="#dae9e5"></rect><text style="text-anchor: middle; font: 12px Arial;" x="169.3" y="99.6" stroke="none" fill="#000"><tspan dy="4.1">9</tspan></text>
<rect x="117.5" y="87.8" width="25.1" height="23.6" r="0" rx="3" ry="3" fill="#dae9e5" stroke="#dae9e5"></rect><text style="text-anchor: middle; font: 12px Arial;" x="130.1" y="99.6" stroke="none" fill="#000"><tspan dy="4.1">1</tspan></text>
<rect x="216.9" y="87.8" width="21.8" height="23.6" r="0" rx="3" ry="3" fill="#dae9e5" stroke="#dae9e5"></rect><text style="text-anchor: middle; font: 12px Arial;" x="227.8" y="99.6" stroke="none" fill="#000"><tspan dy="4.1">.</tspan></text>
<rect x="278.8" y="87.8" width="32" height="23.6" r="0" rx="3" ry="3" fill="#bada55" stroke="#bada55"></rect><text style="text-anchor: middle; font: 12px Arial;" x="294.8" y="99.6" stroke="none" fill="#000"><tspan dy="4.1">digit</tspan></text>
<rect x="350.8" y="82.8" width="74.3" height="33.6" r="0" rx="3" ry="3" fill="#cbcbba" stroke="#cbcbba"></rect><text style="text-anchor: middle; font: 10px Arial;" x="367.2" y="77.3" stroke="none" fill="#000"><tspan dy="3.4">One of:</tspan></text><text style="text-anchor: middle; font: bold 12px Arial;" x="388" y="99.6" stroke="none" fill="#000"><tspan dy="4.1">-</tspan></text>
<rect x="395" y="87.8" width="25.1" height="23.6" r="0" rx="3" ry="3" fill="#dae9e5" stroke="#dae9e5"></rect><text style="text-anchor: middle; font: 12px Arial;" x="407.5" y="99.6" stroke="none" fill="#000"><tspan dy="4.1">9</tspan></text>
<rect x="355.8" y="87.8" width="25.1" height="23.6" r="0" rx="3" ry="3" fill="#dae9e5" stroke="#dae9e5"></rect><text style="text-anchor: middle; font: 12px Arial;" x="368.4" y="99.6" stroke="none" fill="#000"><tspan dy="4.1">1</tspan></text>
<rect x="455.1" y="87.8" width="25.1" height="23.6" r="0" rx="3" ry="3" fill="#dae9e5" stroke="#dae9e5"></rect><text style="text-anchor: middle; font: 12px Arial;" x="467.7" y="99.6" stroke="none" fill="#000"><tspan dy="4.1">e</tspan></text>
<rect x="605.2" y="43.6" width="32.2" height="23.6" r="0" rx="3" ry="3" fill="#dae9e5" stroke="#dae9e5"></rect><text style="text-anchor: middle; font: 12px Arial;" x="621.3" y="55.5" stroke="none" fill="#000"><tspan dy="4.1">+0</tspan></text>
<rect x="510.3" y="88.3" width="35.5" height="67.3" r="0" rx="3" ry="3" fill="#cbcbba" stroke="#cbcbba"></rect><text style="text-anchor: middle; font: 10px Arial;" x="526.8" y="82.8" stroke="none" fill="#000"><tspan dy="3.4">One of:</tspan></text>
<rect x="516.8" y="127.0" width="22.5" height="23.6" r="0" rx="3" ry="3" fill="#dae9e5" stroke="#dae9e5"></rect><text style="text-anchor: middle; font: 12px Arial;" x="528.1" y="138.8" stroke="none" fill="#000"><tspan dy="4.1">-</tspan></text>
<rect x="515.3" y="93.3" width="25.5" height="23.6" r="0" rx="3" ry="3" fill="#dae9e5" stroke="#dae9e5"></rect><text style="text-anchor: middle; font: 12px Arial;" x="528.1" y="105.1" stroke="none" fill="#000"><tspan dy="4.1">+</tspan></text>
<rect x="555.9" y="105.1" width="74.3" height="33.6" r="0" rx="3" ry="3" fill="#cbcbba" stroke="#cbcbba"></rect><text style="text-anchor: middle; font: 10px Arial;" x="572.3" y="99.6" stroke="none" fill="#000"><tspan dy="3.5">One of:</tspan></text><text style="text-anchor: middle; font: bold 12px Arial;" x="593.1" y="122.0" stroke="none" fill="#000"><tspan dy="4.1">-</tspan></text>
<rect x="600.1" y="110.1" width="25.1" height="23.6" r="0" rx="3" ry="3" fill="#dae9e5" stroke="#dae9e5"></rect><text style="text-anchor: middle; font: 12px Arial;" x="612.7" y="122.0" stroke="none" fill="#000"><tspan dy="4.1">9</tspan></text>
<rect x="560.9" y="110.1" width="25.1" height="23.6" r="0" rx="3" ry="3" fill="#dae9e5" stroke="#dae9e5"></rect><text style="text-anchor: middle; font: 12px Arial;" x="573.5" y="122.0" stroke="none" fill="#000"><tspan dy="4.1">1</tspan></text>
<rect x="670.3" y="110.1" width="32" height="23.6" r="0" rx="3" ry="3" fill="#bada55" stroke="#bada55"></rect><text style="text-anchor: middle; font: 12px Arial;" x="686.3" y="122.0" stroke="none" fill="#000"><tspan dy="4.1">digit</tspan></text>
<path fill="none" stroke="#000" d="M10,82.8H20" stroke-width="2"></path>
<circle cx="10" cy="82.8" r="5" fill="#6b6659" stroke="#000" stroke-width="2"></circle>
<path fill="none" stroke="#000" d="M782.3,82.8H772.3" stroke-width="2"></path>
<circle cx="782.3" cy="82.8" r="5" fill="#6b6659" stroke="#000" stroke-width="2"></circle>
</svg>
